<svg width="407" height="120" viewBox="0 0 407 120" fill="none" xmlns="http://www.w3.org/2000/svg">
<path d="M76.2552 73.5308C75.6669 74.7072 74.7846 75.5895 73.9023 75.8836C73.3141 76.1777 72.7259 76.1777 72.4318 76.1777H26.2566C32.727 89.7068 47.1384 98.8242 63.3144 97.6477C80.0786 96.4713 94.49 83.8246 97.7252 67.0604C98.6075 61.7664 98.6075 56.7665 97.7252 52.0608H59.1969L75.667 68.5309C75.9611 68.825 76.2552 69.4132 76.5493 70.0014C76.8434 70.5897 76.8434 71.1779 76.8434 71.472C76.5493 72.6484 76.5493 73.2367 76.2552 73.5308Z" fill="url(#paint0_radial)"/>
<path d="M106.254 52.3549C106.548 54.7078 106.842 57.3547 106.842 60.0017C106.842 85.8833 85.9607 106.765 60.0791 106.765C38.9032 106.765 20.9626 92.6478 15.0804 73.2366C15.0804 72.9425 15.0804 72.9425 14.7863 72.6484C12.4334 64.4134 12.1393 55.296 15.0804 45.8845C20.9626 27.9438 36.8445 14.7089 55.6675 13.2384C70.3729 12.0619 83.6079 17.65 93.0194 27.0615C95.6663 30.0026 93.9017 34.7083 89.7841 34.7083C88.6077 34.7083 87.4312 34.1201 86.5489 33.2378C78.9021 25.591 68.0201 20.8852 55.9616 22.0616C39.1974 23.5322 25.3742 36.1789 22.139 52.649C21.2567 57.943 21.2567 62.9428 22.139 67.6486H60.6673L44.1972 51.1784C43.9031 50.8843 43.609 50.2961 43.3149 49.7079C43.0208 49.1197 43.0208 48.5315 43.0208 48.2374C43.0208 47.6491 43.0208 47.0609 43.3149 46.7668C43.9031 45.5904 44.4913 44.708 45.6678 44.4139C46.256 44.1198 46.8442 44.1198 47.1383 44.1198H93.3135H103.019H116.842C110.666 18.2382 87.1372 -0.290657 59.4909 0.00345208C28.3154 0.297561 1.84549 25.5909 0.0808363 56.7665C-1.68382 91.4714 25.6683 120 60.0791 120C93.3134 120 120.077 93.2361 120.077 60.0017C120.077 57.3547 119.783 55.0019 119.489 52.3549H106.254Z" fill="url(#paint1_radial)"/>
<path d="M170.076 44.1196L165.37 46.7666C164.488 45.2961 163.606 44.4137 163.017 43.8255C162.135 43.2373 161.253 42.9432 159.782 42.9432C158.312 42.9432 156.841 43.5314 155.959 44.4137C154.782 45.2961 154.488 46.4725 154.488 47.649C154.488 49.4136 155.959 50.8842 158.606 52.0606L162.429 53.5311C165.664 54.7076 167.723 56.1781 169.194 58.2369C170.664 60.0015 171.252 62.3544 171.252 65.0014C171.252 68.5307 170.076 71.4718 167.723 73.8247C165.37 76.1775 162.429 77.354 158.9 77.354C155.665 77.354 152.724 76.4716 150.665 74.4129C148.606 72.3541 147.135 69.7071 146.841 66.1778L152.723 65.0014C153.018 67.3543 153.312 68.8248 154.194 69.7071C155.37 71.4718 157.135 72.06 159.488 72.06C161.253 72.06 162.723 71.4718 163.9 70.2954C165.076 69.1189 165.664 67.6484 165.664 65.5896C165.664 64.7073 165.664 64.1191 165.37 63.5308C165.076 62.9426 164.782 62.3544 164.488 61.7662C164.194 61.178 163.606 60.8839 162.723 60.2956C162.135 59.7074 161.253 59.4133 160.37 59.1192L156.841 57.6487C151.547 55.5899 148.9 52.3547 148.9 47.9431C148.9 45.002 150.077 42.6491 152.135 40.8844C154.194 38.8257 157.135 37.9433 160.37 37.9433C164.194 37.6492 167.723 39.708 170.076 44.1196Z" fill="white"/>
<path d="M186.252 52.3548V66.1779C186.252 70.2955 187.722 72.0601 190.958 72.0601C194.193 72.0601 195.663 70.0014 195.663 66.1779V52.3548H201.251V66.1779C201.251 68.2367 200.957 69.7072 200.663 71.1778C200.075 72.3542 199.487 73.5307 198.31 74.413C196.546 76.1776 194.193 76.7659 191.252 76.7659C188.311 76.7659 185.958 75.8835 184.193 74.413C183.017 73.5307 182.134 72.3542 181.84 71.1778C181.252 70.0014 181.252 68.5308 181.252 66.1779V52.3548H186.252Z" fill="white"/>
<path d="M217.721 34.7083V55.0018C220.074 52.6489 222.427 51.4725 225.368 51.4725C228.604 51.4725 231.25 52.6489 233.309 55.0018C235.368 57.3547 236.544 60.2957 236.544 64.1192C236.544 67.9426 235.368 70.8837 233.309 73.2366C231.25 75.5894 228.309 76.7659 225.074 76.7659C222.427 76.7659 219.78 75.5894 217.721 73.5307V76.4718H212.133V34.7083H217.721ZM230.956 64.4133C230.956 62.0604 230.368 60.2957 229.192 58.8252C228.015 57.3547 226.251 56.4723 224.486 56.4723C222.427 56.4723 220.663 57.0605 219.486 58.5311C218.31 60.0016 217.721 61.7663 217.721 64.1192C217.721 66.472 218.31 68.2367 219.486 69.7072C220.663 71.1778 222.427 71.766 224.486 71.766C226.545 71.766 228.015 71.1778 229.192 69.7072C230.074 68.5308 230.956 66.7662 230.956 64.4133Z" fill="white"/>
<path d="M285.955 77.06H278.602L275.661 74.1189C272.426 76.1777 268.897 77.06 265.073 77.06C260.073 77.06 255.662 75.2953 251.544 72.0601C247.427 68.2367 245.074 63.531 245.074 57.6488C245.074 52.0607 247.133 47.0608 251.25 43.2374C255.074 39.414 259.779 37.6494 265.073 37.6494C269.779 37.6494 274.191 39.414 278.014 42.6492C282.72 46.4726 284.779 51.7666 284.779 57.9429C284.779 62.9427 283.014 67.3544 279.191 71.1778L285.955 77.06ZM270.073 61.1781L275.661 66.7662C278.014 64.1192 279.191 61.1781 279.191 57.3547C279.191 53.2371 277.72 49.7078 275.073 47.0608C272.426 44.4139 268.897 42.9433 265.073 42.9433C260.956 42.9433 257.721 44.4139 255.074 47.0608C252.427 49.7078 251.25 53.2371 251.25 57.3547C251.25 61.4722 252.721 64.7074 255.368 67.3544C258.309 70.0014 261.544 71.4719 265.073 71.4719C267.426 71.4719 269.779 70.8837 271.838 69.7073L263.015 60.884H270.073V61.1781Z" fill="white"/>
<path d="M300.66 52.3548V66.1779C300.66 70.2955 302.131 72.0601 305.366 72.0601C308.601 72.0601 310.072 70.0014 310.072 66.1779V52.3548H315.66V66.1779C315.66 68.2367 315.366 69.7072 315.072 71.1778C314.484 72.3542 313.895 73.5307 312.719 74.413C310.954 76.1776 308.601 76.7659 305.66 76.7659C302.719 76.7659 300.366 75.8835 298.602 74.413C297.425 73.5307 296.543 72.3542 296.249 71.1778C295.661 70.0014 295.661 68.5308 295.661 66.1779V52.3548H300.66Z" fill="white"/>
<path d="M348.306 65.5899H330.954C331.248 67.6486 331.836 69.1192 333.012 70.2956C334.189 71.472 335.659 72.0603 337.424 72.0603C338.895 72.0603 340.071 71.7661 340.953 71.1779C341.836 70.5897 342.718 69.4133 343.894 67.6486L348.6 70.2956C348.012 71.472 347.13 72.6485 346.247 73.5308C345.365 74.4131 344.483 75.0014 343.6 75.5896C342.718 76.1778 341.541 76.4719 340.659 76.766C339.483 77.0601 338.306 77.0601 337.13 77.0601C333.601 77.0601 330.659 75.8837 328.601 73.5308C326.542 71.1779 325.365 68.2368 325.365 64.4134C325.365 60.59 326.542 57.6489 328.601 55.296C330.659 52.9432 333.601 51.7667 337.13 51.7667C340.659 51.7667 343.6 52.9432 345.365 55.0019C347.424 57.3548 348.306 60.2959 348.306 64.4134V65.5899ZM342.424 61.1782C341.541 58.2371 339.777 56.7666 336.836 56.7666C336.248 56.7666 335.659 56.7666 335.071 57.0607C334.483 57.3548 333.895 57.6489 333.6 57.943C333.012 58.2371 332.718 58.8253 332.424 59.4136C332.13 60.0018 331.836 60.59 331.542 61.1782H342.424Z" fill="white"/>
<path d="M358.012 52.3549H363.6V54.4137C364.482 53.2373 365.659 52.649 366.247 52.3549C367.129 52.0608 368.012 51.7667 369.188 51.7667C370.658 51.7667 372.129 52.3549 373.894 53.2373L371.247 58.2371C370.07 57.3548 369.188 57.0607 368.306 57.0607C365.365 57.0607 363.894 59.4136 363.894 63.8252V76.4719H358.306V52.3549H358.012Z" fill="white"/>
<path d="M390.364 71.766L379.482 52.3548H385.952L393.305 66.1779L400.069 52.3548H406.246L387.129 89.4126H380.658L390.364 71.766Z" fill="white"/>
<defs>
<radialGradient id="paint0_radial" cx="0" cy="0" r="1" gradientUnits="userSpaceOnUse" gradientTransform="translate(9.89182 -0.735915) scale(133.677 133.677)">
<stop offset="0.475" stop-color="#4388DD"/>
<stop offset="0.9988" stop-color="#FF4581"/>
</radialGradient>
<radialGradient id="paint1_radial" cx="0" cy="0" r="1" gradientUnits="userSpaceOnUse" gradientTransform="translate(9.89179 -0.735937) scale(133.677)">
<stop offset="0.475" stop-color="#4388DD"/>
<stop offset="0.9988" stop-color="#FF4581"/>
</radialGradient>
</defs>
</svg>
